<svg id="svg" xmlns="http://www.w3.org/2000/svg" xmlns:xlink="http://www.w3.org/1999/xlink" width="400" height="286.3013698630137" viewBox="0, 0, 400,286.3013698630137"><g id="svgg"><path id="path0" d="M186.301 50.596 C 152.865 60.804,141.130 102.378,164.474 127.921 C 196.608 163.080,253.876 135.437,246.356 88.397 C 242.019 61.270,212.402 42.628,186.301 50.596 M81.682 59.545 C 53.499 69.591,50.432 110.907,76.804 125.260 C 106.212 141.266,139.005 114.787,129.483 82.723 C 123.766 63.472,101.268 52.564,81.682 59.545 M292.312 59.351 C 272.734 66.735,262.922 89.599,271.340 108.219 C 287.137 143.156,338.045 134.088,340.781 95.850 C 342.614 70.228,316.203 50.339,292.312 59.351 M214.181 64.153 C 230.430 71.340,239.048 90.332,233.559 106.857 C 225.276 131.796,193.363 139.847,175.117 121.601 C 147.398 93.882,178.381 48.317,214.181 64.153 M103.678 69.950 C 109.160 72.022,114.998 77.869,117.951 84.247 C 128.197 106.377,101.404 128.167,80.751 114.499 C 56.550 98.484,76.516 59.688,103.678 69.950 M316.096 71.399 C 331.718 78.961,334.761 99.878,321.927 111.473 C 311.029 121.318,297.574 121.255,287.350 111.311 C 266.913 91.432,290.326 58.924,316.096 71.399 M74.142 141.887 C 51.427 147.997,31.379 165.708,22.357 187.638 C 17.874 198.533,18.109 200.008,24.315 199.963 C 29.376 199.926,29.528 199.765,34.566 189.119 C 52.160 151.940,96.759 139.293,131.375 161.666 L 139.950 167.208 144.856 164.176 L 149.762 161.144 145.086 157.212 C 127.011 142.009,97.440 135.621,74.142 141.887 M282.877 142.283 C 269.457 146.139,249.451 158.538,251.444 161.764 C 254.232 166.275,260.291 167.249,264.753 163.904 C 301.190 136.588,354.506 153.862,369.019 197.686 C 370.448 201.999,380.250 200.361,379.766 195.890 C 375.868 159.956,323.058 130.737,282.877 142.283 M179.452 160.950 C 142.872 168.297,106.847 200.979,100.547 232.534 L 99.658 236.986 105.672 236.986 C 111.608 236.986,111.716 236.902,114.001 230.479 C 141.489 153.209,255.748 152.294,285.047 229.110 L 288.051 236.986 294.026 236.986 C 301.054 236.986,301.091 236.799,296.402 224.891 C 278.060 178.307,228.350 151.129,179.452 160.950 " stroke="none" fill="#000000" fill-rule="evenodd"></path></g></svg>