<svg id="svg" xmlns="http://www.w3.org/2000/svg" xmlns:xlink="http://www.w3.org/1999/xlink" width="400" height="400" viewBox="0, 0, 400,400"><g id="svgg"><path id="path0" d="M173.624 51.212 C 171.891 53.127,169.550 61.690,168.193 71.076 L 165.807 87.574 156.463 91.522 L 147.119 95.470 132.604 85.056 C 114.128 71.799,115.579 71.527,94.479 92.219 C 73.522 112.771,73.535 112.709,86.333 131.222 L 96.110 145.365 92.720 154.794 L 89.329 164.222 73.851 166.540 C 49.372 170.206,49.761 169.683,49.761 198.950 C 49.761 228.738,49.518 228.378,71.912 231.710 L 88.466 234.173 92.080 242.604 C 96.844 253.718,97.088 252.688,86.124 267.761 C 73.375 285.290,73.553 286.387,92.269 305.562 C 113.327 327.136,114.358 327.283,135.102 311.649 C 146.381 303.149,146.297 303.163,157.396 307.920 L 165.827 311.534 168.290 328.088 C 171.622 350.482,171.262 350.239,201.050 350.239 C 230.317 350.239,229.794 350.628,233.460 326.149 L 235.778 310.671 245.216 307.276 L 254.655 303.882 269.134 313.664 C 287.880 326.329,287.245 326.462,307.781 305.521 C 328.488 284.406,328.174 286.078,314.890 267.657 L 304.421 253.140 308.423 243.666 L 312.426 234.193 328.924 231.807 C 352.110 228.455,352.153 228.395,352.153 199.703 C 352.153 170.501,351.898 170.138,328.908 166.718 L 312.594 164.291 308.675 155.016 L 304.757 145.742 315.262 130.525 C 328.098 111.933,328.239 112.561,306.439 91.228 C 286.419 71.638,287.894 71.886,269.122 84.953 L 254.308 95.264 245.008 91.335 L 235.709 87.406 233.282 71.092 C 229.862 48.102,229.499 47.847,200.297 47.847 C 180.182 47.847,176.217 48.347,173.624 51.212 M214.205 81.818 C 218.125 105.293,217.885 104.725,224.420 106.032 C 227.736 106.696,236.231 109.903,243.297 113.160 L 256.145 119.082 270.715 108.910 L 285.284 98.737 293.273 106.727 L 301.263 114.716 291.090 129.285 L 280.918 143.855 286.840 156.703 C 290.097 163.769,293.304 172.264,293.968 175.580 C 295.275 182.115,294.707 181.875,318.182 185.795 L 331.100 187.953 331.100 199.111 C 331.100 211.835,332.303 210.970,309.738 214.466 L 295.075 216.739 293.794 223.562 C 293.090 227.315,290.000 235.366,286.927 241.454 C 279.824 255.525,279.621 254.155,291.163 270.024 L 300.986 283.529 293.645 291.047 C 284.533 300.379,285.874 300.513,269.545 288.637 L 255.895 278.708 248.043 283.240 C 243.725 285.732,235.491 289.230,229.745 291.014 C 218.032 294.649,217.882 294.904,214.313 317.225 L 212.094 331.100 200.913 331.100 C 188.157 331.100,189.033 332.322,185.518 309.640 L 183.230 294.878 173.433 291.703 C 168.045 289.957,159.619 286.383,154.709 283.762 L 145.781 278.995 131.205 289.172 L 116.630 299.349 108.641 291.359 L 100.651 283.370 110.697 268.983 L 120.742 254.595 114.180 240.695 C 110.571 233.049,107.102 224.546,106.471 221.799 C 105.419 217.213,104.106 216.614,90.461 214.499 C 67.663 210.964,68.900 211.848,68.900 199.087 L 68.900 187.906 82.775 185.687 C 105.096 182.118,105.351 181.968,108.986 170.255 C 110.770 164.509,114.242 156.321,116.702 152.058 L 121.175 144.308 111.305 130.738 C 99.490 114.494,99.589 115.499,108.919 106.388 L 116.404 99.080 130.870 109.180 L 145.337 119.281 158.401 113.260 C 165.586 109.948,174.133 106.704,177.395 106.052 C 183.197 104.892,183.375 104.528,185.596 89.275 C 188.747 67.634,187.808 68.900,200.700 68.900 L 212.047 68.900 214.205 81.818 M182.530 147.661 C 138.166 162.788,134.598 227.967,177.033 248.063 C 231.135 273.683,280.694 205.436,239.502 162.039 C 226.142 147.964,200.570 141.510,182.530 147.661 M209.031 166.591 C 229.944 172.400,240.182 194.104,230.890 212.936 C 217.218 240.644,180.069 239.745,169.261 211.444 C 159.550 186.015,183.147 159.402,209.031 166.591 " stroke="none" fill="#ffffff" fill-rule="evenodd"></path></g></svg>