<?xml version="1.0" encoding="UTF-8" standalone="no"?>
<svg
   id="svg"
   width="400"
   height="400"
   viewBox="0, 0, 400,400"
   version="1.1"
   sodipodi:docname="messages.svg"
   inkscape:version="1.1.1 (3bf5ae0d25, 2021-09-20)"
   xmlns:inkscape="http://www.inkscape.org/namespaces/inkscape"
   xmlns:sodipodi="http://sodipodi.sourceforge.net/DTD/sodipodi-0.dtd"
   xmlns="http://www.w3.org/2000/svg"
   xmlns:svg="http://www.w3.org/2000/svg">
  <defs
     id="defs6866" />
  <sodipodi:namedview
     id="namedview6864"
     pagecolor="#ffffff"
     bordercolor="#ffffff"
     borderopacity="1.0"
     inkscape:pageshadow="2"
     inkscape:pageopacity="0.0"
     inkscape:pagecheckerboard="0"
     showgrid="false"
     inkscape:zoom="2.08"
     inkscape:cx="199.75962"
     inkscape:cy="199.75962"
     inkscape:window-width="1920"
     inkscape:window-height="1017"
     inkscape:window-x="-8"
     inkscape:window-y="-8"
     inkscape:window-maximized="1"
     inkscape:current-layer="svg" />
  <g
     id="svgg"
     style="fill:#e1e1e1">
    <path
       id="path0"
       d="M72.532 100.066 C 61.724 107.333,61.471 109.589,61.352 199.583 C 61.235 288.473,61.404 290.068,71.797 298.243 L 77.071 302.392 199.396 302.392 C 333.609 302.392,329.781 302.713,335.853 290.972 C 340.388 282.202,340.181 114.965,335.626 107.253 C 328.526 95.234,333.897 95.694,200.466 95.694 L 79.035 95.694 72.532 100.066 M296.582 117.411 C 289.295 124.114,204.042 191.793,201.802 192.652 C 199.798 193.421,111.533 128.457,99.590 117.422 C 97.231 115.243,112.832 114.833,198.086 114.833 C 283.128 114.833,298.935 115.246,296.582 117.411 M321.432 195.694 L 321.332 268.900 291.215 237.799 C 260.549 206.133,255.506 202.676,249.187 208.995 C 243.171 215.010,246.615 220.192,277.990 252.342 L 309.091 284.211 255.024 284.719 C 225.287 284.998,176.871 284.998,147.432 284.719 L 93.908 284.211 121.701 250.973 C 150.402 216.650,153.293 211.150,145.272 206.131 C 138.795 202.078,132.776 207.125,107.177 238.072 L 81.340 269.308 80.819 234.175 C 80.533 214.853,80.533 183.034,80.819 163.467 L 81.340 127.891 114.960 153.565 C 186.582 208.259,197.558 216.268,200.891 216.268 C 202.786 216.268,230.490 195.229,262.455 169.514 C 294.421 143.800,320.789 122.700,321.053 122.624 C 321.316 122.549,321.486 155.431,321.432 195.694 "
       stroke="none"
       fill="#ffffff"
       fill-rule="evenodd"
       style="fill:#e1e1e1" />
  </g>
</svg>
