<?xml version="1.0" encoding="UTF-8" standalone="no"?>
<svg
   id="svg"
   width="400"
   height="400"
   viewBox="0, 0, 400,400"
   version="1.1"
   sodipodi:docname="profile.svg"
   inkscape:version="1.1.1 (3bf5ae0d25, 2021-09-20)"
   xmlns:inkscape="http://www.inkscape.org/namespaces/inkscape"
   xmlns:sodipodi="http://sodipodi.sourceforge.net/DTD/sodipodi-0.dtd"
   xmlns="http://www.w3.org/2000/svg"
   xmlns:svg="http://www.w3.org/2000/svg">
  <defs
     id="defs6772" />
  <sodipodi:namedview
     id="namedview6770"
     pagecolor="#ffffff"
     bordercolor="#ffffff"
     borderopacity="1.0"
     inkscape:pageshadow="2"
     inkscape:pageopacity="0.0"
     inkscape:pagecheckerboard="0"
     showgrid="false"
     inkscape:zoom="2.08"
     inkscape:cx="199.75962"
     inkscape:cy="199.75962"
     inkscape:window-width="1920"
     inkscape:window-height="1017"
     inkscape:window-x="-8"
     inkscape:window-y="-8"
     inkscape:window-maximized="1"
     inkscape:current-layer="svg" />
  <g
     id="svgg"
     style="fill:#e1e1e1">
    <path
       id="path0"
       d="M178.947 54.250 C 100.668 80.174,113.286 194.839,195.036 200.442 C 277.997 206.128,307.279 92.515,231.809 57.766 C 218.911 51.827,191.723 50.019,178.947 54.250 M223.064 74.491 C 242.863 83.239,256.473 104.301,256.441 126.143 C 256.353 185.558,176.161 203.392,149.953 149.825 C 127.627 104.192,176.442 53.892,223.064 74.491 M159.399 230.583 C 108.321 243.785,65.587 282.200,46.977 331.643 C 40.626 348.515,40.576 348.325,51.441 348.325 L 60.777 348.325 65.170 336.580 C 110.175 216.236,282.538 213.717,334.159 332.649 L 340.547 347.368 350.050 347.942 L 359.553 348.517 357.572 341.244 C 335.518 260.252,243.473 208.854,159.399 230.583 "
       stroke="none"
       fill="#ffffff"
       fill-rule="evenodd"
       style="fill:#e1e1e1" />
  </g>
</svg>
