<?xml version="1.0" encoding="UTF-8" standalone="no"?>
<svg
   id="svg"
   width="400"
   height="400"
   viewBox="0, 0, 400,400"
   version="1.1"
   sodipodi:docname="upload.svg"
   inkscape:version="1.1.1 (3bf5ae0d25, 2021-09-20)"
   xmlns:inkscape="http://www.inkscape.org/namespaces/inkscape"
   xmlns:sodipodi="http://sodipodi.sourceforge.net/DTD/sodipodi-0.dtd"
   xmlns="http://www.w3.org/2000/svg"
   xmlns:svg="http://www.w3.org/2000/svg">
  <defs
     id="defs6678" />
  <sodipodi:namedview
     id="namedview6676"
     pagecolor="#ffffff"
     bordercolor="#ffffff"
     borderopacity="1.0"
     inkscape:pageshadow="2"
     inkscape:pageopacity="0.0"
     inkscape:pagecheckerboard="0"
     showgrid="false"
     inkscape:zoom="2.08"
     inkscape:cx="199.75962"
     inkscape:cy="199.75962"
     inkscape:window-width="1920"
     inkscape:window-height="1017"
     inkscape:window-x="-8"
     inkscape:window-y="-8"
     inkscape:window-maximized="1"
     inkscape:current-layer="svg" />
  <g
     id="svgg"
     style="fill:#e1e1e1">
    <path
       id="path0"
       d="M182.775 74.640 C 79.570 89.070,38.309 215.348,112.726 289.024 C 179.371 355.005,291.802 327.724,320.832 238.527 C 349.351 150.898,274.329 61.839,182.775 74.640 M235.636 96.146 C 312.403 124.220,334.794 216.091,279.147 274.673 C 221.866 334.974,122.903 312.223,96.624 232.712 C 69.007 149.151,153.526 66.119,235.636 96.146 M194.668 123.673 C 193.916 124.425,193.301 139.968,193.301 158.214 L 193.301 191.388 160.191 191.388 C 126.088 191.388,122.488 192.142,122.488 199.289 C 122.488 207.576,126.752 208.612,160.858 208.612 L 193.213 208.612 193.736 242.584 C 194.256 276.421,194.276 276.557,198.670 277.180 C 207.841 278.480,208.612 275.666,208.612 240.914 L 208.612 208.612 240.766 208.612 C 275.330 208.612,277.512 208.034,277.512 198.865 C 277.512 191.746,275.718 191.388,240.079 191.388 L 208.701 191.388 208.178 157.416 L 207.656 123.445 201.845 122.876 C 198.649 122.563,195.420 122.922,194.668 123.673 "
       stroke="none"
       fill="#ffffff"
       fill-rule="evenodd"
       style="fill:#e1e1e1" />
  </g>
</svg>
