<svg id="svg" xmlns="http://www.w3.org/2000/svg" xmlns:xlink="http://www.w3.org/1999/xlink" width="400" height="400" viewBox="0, 0, 400,400"><g id="svgg"><path id="path0" d="M117.271 125.467 C 48.792 185.183,39.157 194.256,38.605 199.545 C 37.939 205.931,41.866 210.526,47.992 210.526 C 50.397 210.526,162.904 114.542,196.241 84.049 C 200.097 80.522,200.898 81.145,271.839 142.810 C 353.246 213.571,350.448 211.369,356.895 209.751 C 362.294 208.396,365.347 200.301,362.308 195.398 C 356.891 186.658,205.476 57.615,200.524 57.518 C 196.341 57.436,179.846 70.899,117.271 125.467 M147.368 145.729 C 121.579 168.938,95.957 192.055,90.431 197.099 L 80.383 206.270 80.383 271.682 C 80.383 313.112,81.109 338.451,82.364 340.796 C 84.243 344.307,86.856 344.498,133.082 344.498 L 181.818 344.498 181.818 309.091 L 181.818 273.684 200.957 273.684 L 220.096 273.684 220.096 309.091 L 220.096 344.498 267.708 344.498 C 305.655 344.498,315.762 343.966,317.494 341.879 C 319.046 340.009,319.523 319.933,319.164 271.560 L 318.660 203.859 262.226 153.604 C 214.415 111.028,204.911 103.363,200.025 103.440 C 195.258 103.514,186.134 110.842,147.368 145.729 M253.239 173.126 L 300.478 215.151 300.478 270.255 L 300.478 325.359 269.856 325.359 L 239.234 325.359 239.234 292.249 C 239.234 251.063,242.770 254.545,200.957 254.545 C 159.144 254.545,162.679 251.063,162.679 292.249 L 162.679 325.359 132.057 325.359 L 101.435 325.359 101.435 270.073 L 101.435 214.787 150.682 170.753 C 191.860 133.933,200.426 127.078,202.964 128.910 C 204.633 130.115,227.257 150.012,253.239 173.126 " stroke="none" fill="#ffffff" fill-rule="evenodd"></path></g></svg>